# xmcd
#
# Track frame offsets:
#	150
#	20568
#	44385
#	52506
#	66243
#	104826
#	127248
#
# Disc length: 1777 seconds
#
# Revision: 0
# Processed by: cddbd v1.5.2PL0 Copyright (c) Steve Scherf et al.
# Submitted via: dBpowerAMP V4.0
#
DISCID=6206ef07
DTITLE=Amon Düde - Amon Düde
DYEAR=2006
DGENRE=Avantgarde
TTITLE0=Live @ Vastavirta - Cut #1
TTITLE1=Live @ Orthodox Cathedral Helsinki
TTITLE2=Live @ Vastavirta - Cut #2
TTITLE3=with reverend Washington
TTITLE4=Live from Turku - Avarus rehearsal place
TTITLE5=with reverend Washington
TTITLE6=Live @ Vastavirta - Cut #3
EXTD=
EXTT0=
EXTT1=
EXTT2=
EXTT3=
EXTT4=
EXTT5=
EXTT6=
PLAYORDER=
